<svg width="26" height="26" viewBox="0 0 26 26" fill="none" xmlns="http://www.w3.org/2000/svg">
<g clip-path="url(#clip0_64_2949)">
<path d="M22.2517 5.66583L20.7458 3.84583C20.4533 3.4775 20.0092 3.25 19.5 3.25H6.5C5.99083 3.25 5.54667 3.4775 5.24333 3.84583L3.74833 5.66583C3.43417 6.03417 3.25 6.52167 3.25 7.04167V20.5833C3.25 21.775 4.225 22.75 5.41667 22.75H20.5833C21.775 22.75 22.75 21.775 22.75 20.5833V7.04167C22.75 6.52167 22.5658 6.03417 22.2517 5.66583ZM13 18.9583L7.04167 13H10.8333V10.8333H15.1667V13H18.9583L13 18.9583ZM5.54667 5.41667L6.42417 4.33333H19.4242L20.4425 5.41667H5.54667Z" fill="#84939A"/>
</g>
<defs>
<clipPath id="clip0_64_2949">
<rect width="26" height="26" fill="white"/>
</clipPath>
</defs>
</svg>
