<svg width="23" height="23" viewBox="0 0 23 23" fill="none" xmlns="http://www.w3.org/2000/svg">
<path d="M17.4864 17.7197L13.5489 16.0322C13.3807 15.9605 13.1937 15.9454 13.0162 15.9892C12.8386 16.0329 12.6801 16.1331 12.5645 16.2748L10.8207 18.4052C8.08409 17.1149 5.88171 14.9126 4.59141 12.1759L6.72187 10.4322C6.86379 10.3167 6.96424 10.1582 7.00801 9.9806C7.05178 9.80298 7.03649 9.61594 6.96445 9.44779L5.27695 5.51029C5.19789 5.32902 5.05806 5.18103 4.88157 5.09182C4.70508 5.00261 4.50299 4.97778 4.31016 5.02161L0.653906 5.86536C0.467989 5.9083 0.302114 6.01298 0.183352 6.16232C0.0645909 6.31167 -4.28277e-05 6.49686 2.12914e-08 6.68767C2.12914e-08 15.7052 7.30898 23.0002 16.3125 23.0002C16.5034 23.0003 16.6886 22.9357 16.8381 22.8169C16.9875 22.6982 17.0922 22.5322 17.1352 22.3463L17.9789 18.69C18.0225 18.4962 17.9971 18.2933 17.9072 18.1162C17.8173 17.9391 17.6685 17.7989 17.4864 17.7197Z" fill="#008069"/>
<path d="M14.6638 7.15997L21.8237 0L23 1.17627L15.8409 8.33624H22.1507V10L13 10L13 0.849347H14.6638L14.6638 7.15997Z" fill="#F71111"/>
</svg>
