<svg width="23" height="24" viewBox="0 0 23 24" fill="none" xmlns="http://www.w3.org/2000/svg">
<path d="M14.6767 8.17992L21.7936 0.977195L22.9769 2.1464L15.8608 9.34912L22.1705 9.31133L22.1805 10.9751L13.03 11.0299L12.9752 1.87937L14.6389 1.86941L14.6767 8.17992Z" fill="#006B02"/>
<g clip-path="url(#clip0_0_1)">
<path d="M17.4867 18.7194L13.5491 17.0319C13.3809 16.9602 13.1939 16.9451 13.0164 16.9889C12.8389 17.0326 12.6804 17.1329 12.5647 17.2745L10.8209 19.405C8.08423 18.1147 5.88181 15.9123 4.59149 13.1756L6.72199 11.4318C6.86391 11.3163 6.96436 11.1578 7.00813 10.9802C7.0519 10.8026 7.03661 10.6155 6.96457 10.4474L5.27705 6.50981C5.19798 6.32854 5.05815 6.18054 4.88165 6.09133C4.70516 6.00213 4.50307 5.9773 4.31023 6.02113L0.653918 6.86489C0.467997 6.90782 0.302119 7.01251 0.183355 7.16186C0.064592 7.3112 -4.28284e-05 7.4964 2.12917e-08 7.68721C2.12917e-08 16.7049 7.30911 24 16.3128 24C16.5037 24.0001 16.6889 23.9355 16.8384 23.8168C16.9878 23.698 17.0925 23.5321 17.1355 23.3461L17.9792 19.6898C18.0228 19.496 17.9974 19.2931 17.9075 19.116C17.8176 18.9389 17.6688 18.7987 17.4867 18.7194V18.7194Z" fill="#008069"/>
</g>
<defs>
<clipPath id="clip0_0_1">
<rect width="18" height="18" fill="white" transform="translate(0 6)"/>
</clipPath>
</defs>
</svg>
