<svg width="23" height="23" viewBox="0 0 23 23" fill="none" xmlns="http://www.w3.org/2000/svg">
<path d="M21.3362 2.84003L14.1763 10L13 8.82373L20.1591 1.66376H13.8493V0H23V9.15065H21.3362V2.84003Z" fill="#006B02"/>
<g clip-path="url(#clip0_0_1)">
<path d="M17.4867 17.7194L13.5491 16.0319C13.3809 15.9602 13.1939 15.9451 13.0164 15.9889C12.8389 16.0326 12.6804 16.1329 12.5647 16.2745L10.8209 18.405C8.08423 17.1147 5.88181 14.9123 4.59149 12.1756L6.72199 10.4318C6.86391 10.3163 6.96436 10.1578 7.00813 9.9802C7.0519 9.80258 7.03661 9.61553 6.96457 9.44738L5.27705 5.50981C5.19798 5.32854 5.05815 5.18054 4.88165 5.09133C4.70516 5.00213 4.50307 4.9773 4.31023 5.02113L0.653918 5.86489C0.467997 5.90782 0.302119 6.01251 0.183355 6.16186C0.064592 6.3112 -4.28284e-05 6.4964 2.12917e-08 6.68721C2.12917e-08 15.7049 7.30911 23 16.3128 23C16.5037 23.0001 16.6889 22.9355 16.8384 22.8168C16.9878 22.698 17.0925 22.5321 17.1355 22.3461L17.9792 18.6898C18.0228 18.496 17.9974 18.2931 17.9075 18.116C17.8176 17.9389 17.6688 17.7987 17.4867 17.7194V17.7194Z" fill="#008069"/>
</g>
<defs>
<clipPath id="clip0_0_1">
<rect width="18" height="18" fill="white" transform="translate(0 5)"/>
</clipPath>
</defs>
</svg>
