<svg width="20" height="28" viewBox="0 0 20 28" fill="none" xmlns="http://www.w3.org/2000/svg">
<g clip-path="url(#clip0_27_705)">
<path d="M19.4293 19.7859L15.0543 17.1609C14.8674 17.0494 14.6597 17.0259 14.4624 17.0939C14.2652 17.162 14.089 17.3179 13.9605 17.5382L12.023 20.8523C8.98232 18.8451 6.53523 15.4192 5.10156 11.1622L7.46875 8.4497C7.62644 8.27014 7.73804 8.02356 7.78668 7.74726C7.83531 7.47097 7.81832 7.18001 7.73828 6.91845L5.86328 0.793447C5.77543 0.511483 5.62007 0.281269 5.42396 0.142501C5.22786 0.00373319 5.00332 -0.0348902 4.78906 0.0332907L0.726562 1.34579C0.519988 1.41257 0.335682 1.57541 0.203725 1.80773C0.0717677 2.04004 -4.75863e-05 2.32812 2.36571e-08 2.62493C2.36571e-08 16.6523 8.12109 27.9999 18.125 27.9999C18.3371 28.0001 18.5429 27.8996 18.709 27.7149C18.875 27.5301 18.9913 27.272 19.0391 26.9827L19.9766 21.2952C20.0249 20.9938 19.9968 20.6782 19.8969 20.4027C19.797 20.1272 19.6317 19.9091 19.4293 19.7859Z" fill="white"/>
</g>
<defs>
<clipPath id="clip0_27_705">
<rect width="20" height="28" fill="white"/>
</clipPath>
</defs>
</svg>
